# xmcd
#
# Track frame offsets: 
#        150
#        33065
#        69393
#        101421
#        125047
#        153596
#        190000
#        208898
#        226986
#        258555
#        286157
#
# Disc length: 4154 seconds
#
# Revision: 3
# Processed by: cddbd v1.5.2PL0 Copyright (c) Steve Scherf et al.
# Submitted via: ExactAudioCopyFreeDBPlugin 1.0
#
DISCID=9710380b
DTITLE=Phil Guy - Say What You Mean
DYEAR=1999
DGENRE=Blues
TTITLE0=Lonesome Blues
TTITLE1=Fixin' To Die
TTITLE2=Help Wanted Blues
TTITLE3=Is It Him Or Me?
TTITLE4=I'm Leavin' Right Now
TTITLE5=Last Time
TTITLE6=4 Am Blues
TTITLE7=Say What You Mean
TTITLE8=Have Mercy
TTITLE9=Last Of The Blues Singers
TTITLE10=You At My Door
EXTD=YEAR: 1999
EXTT0=
EXTT1=
EXTT2=
EXTT3=
EXTT4=
EXTT5=
EXTT6=
EXTT7=
EXTT8=
EXTT9=
EXTT10=
PLAYORDER=
